<svg xmlns="http://www.w3.org/2000/svg" width="500" height="250" viewBox="0 0 500 250"><rect width="100%" height="100%" fill="#DDDDDD"/><path fill="#999999" d="M102.47 131.075q-1.4 0-2.16-.79-.75-.8-.75-2.19v-6.02h-1.1q-.21 0-.36-.14-.14-.13-.14-.41v-1.03l1.73-.28.55-2.94q.05-.21.2-.32.14-.12.37-.12h1.35v3.39h2.87v1.85h-2.87v5.84q0 .5.24.78.25.29.68.29.24 0 .41-.06.16-.06.28-.12.12-.06.21-.12.1-.06.19-.06.12 0 .19.06.08.06.16.17l.78 1.26q-.57.47-1.3.72-.74.24-1.53.24Zm6.82-15.77v5.98q.63-.59 1.38-.95.76-.37 1.78-.37.88 0 1.56.3t1.14.84q.46.54.69 1.29.24.75.24 1.65v6.86h-2.59v-6.86q0-.98-.45-1.52-.46-.55-1.38-.55-.67 0-1.26.31-.59.3-1.11.83v7.79h-2.6v-15.6h2.6Zm9.33 4.83h2.61v10.77h-2.61v-10.77Zm2.96-3.14q0 .33-.13.63-.14.29-.37.51-.22.22-.53.35-.3.13-.65.13-.33 0-.63-.13t-.52-.35q-.22-.22-.35-.51-.14-.3-.14-.63 0-.35.14-.65.13-.31.35-.53.22-.22.52-.35.3-.13.63-.13.35 0 .65.13.31.13.53.35.23.22.37.53.13.3.13.65Zm9.45 4.3-.59.94q-.1.16-.22.23-.11.07-.29.07-.19 0-.4-.1-.22-.11-.5-.24-.29-.13-.65-.24-.36-.1-.85-.1-.77 0-1.21.32-.43.33-.43.85 0 .35.22.59.23.23.6.41.37.18.85.32.47.14.96.31.49.17.96.39.47.21.84.54.38.33.6.79.23.47.23 1.12 0 .77-.28 1.43-.28.66-.82 1.13-.55.48-1.35.75-.81.27-1.86.27-.55 0-1.08-.1t-1.02-.28q-.49-.18-.91-.42-.41-.24-.72-.53l.59-.98q.12-.18.28-.28.15-.09.4-.09.24 0 .45.14.22.13.5.29.28.16.67.29.38.14.97.14.46 0 .79-.11t.55-.29q.21-.18.31-.41.1-.24.1-.49 0-.38-.22-.62-.23-.24-.6-.42t-.85-.32q-.48-.14-.98-.31-.5-.17-.98-.39-.47-.23-.85-.58-.37-.34-.59-.85-.23-.5-.23-1.21 0-.67.26-1.26.27-.6.77-1.05.51-.45 1.27-.71.77-.27 1.76-.27 1.12 0 2.03.37.91.36 1.52.96Zm7.26-1.16h2.6v10.77h-2.6v-10.77Zm2.96-3.14q0 .33-.14.63-.13.29-.36.51-.23.22-.53.35-.3.13-.65.13-.34 0-.64-.13t-.52-.35q-.22-.22-.35-.51-.13-.3-.13-.63 0-.35.13-.65.13-.31.35-.53.22-.22.52-.35.3-.13.64-.13.35 0 .65.13.3.13.53.35.23.22.36.53.14.3.14.65Zm9.45 4.3-.59.94q-.1.16-.22.23-.11.07-.29.07-.19 0-.41-.1-.21-.11-.5-.24-.28-.13-.64-.24-.36-.1-.86-.1-.76 0-1.2.32-.44.33-.44.85 0 .35.23.59.23.23.6.41.37.18.84.32.48.14.96.31.49.17.97.39.47.21.84.54.37.33.6.79.22.47.22 1.12 0 .77-.27 1.43-.28.66-.83 1.13-.54.48-1.35.75-.8.27-1.85.27-.56 0-1.09-.1t-1.02-.28q-.48-.18-.9-.42-.41-.24-.73-.53l.6-.98q.12-.18.27-.28.16-.09.4-.09.24 0 .46.14.21.13.5.29.28.16.66.29.39.14.98.14.46 0 .79-.11t.54-.29q.22-.18.32-.41.1-.24.1-.49 0-.38-.23-.62-.22-.24-.6-.42-.37-.18-.85-.32-.47-.14-.97-.31-.5-.17-.98-.39-.48-.23-.85-.58-.37-.34-.6-.85-.22-.5-.22-1.21 0-.67.26-1.26.26-.6.77-1.05.51-.45 1.27-.71.76-.27 1.76-.27 1.11 0 2.03.37.91.36 1.52.96Zm12.86 6.83v-1.82q-1.12.05-1.89.2-.76.14-1.23.36-.46.22-.66.51-.2.3-.2.64 0 .68.41.98.4.29 1.05.29.8 0 1.38-.29.59-.28 1.14-.87Zm-5.48-5.66-.46-.83q1.86-1.7 4.47-1.7.95 0 1.69.31.75.31 1.26.86.52.55.78 1.32.27.76.27 1.68v6.8h-1.17q-.37 0-.57-.11-.2-.11-.32-.45l-.23-.77q-.41.36-.79.64-.39.28-.81.47-.42.19-.9.29-.48.1-1.06.1-.68 0-1.26-.19-.57-.18-.99-.55-.42-.36-.65-.91-.24-.55-.24-1.27 0-.41.14-.81.14-.41.45-.78.31-.36.8-.69.49-.33 1.21-.57.72-.24 1.68-.39.95-.15 2.18-.18v-.63q0-1.09-.46-1.61t-1.33-.52q-.63 0-1.05.15-.41.15-.73.33-.31.19-.57.33-.26.15-.57.15-.28 0-.46-.14-.19-.14-.31-.33Zm18.14.82v4.83q.45.53.97.75.52.22 1.12.22.59 0 1.06-.22.48-.22.81-.67.33-.45.51-1.14t.18-1.62q0-.95-.16-1.6-.15-.66-.43-1.07-.29-.41-.69-.6-.4-.19-.92-.19-.81 0-1.37.35-.57.34-1.08.96Zm-.34-2.68.21 1q.66-.75 1.5-1.21.84-.46 1.97-.46.89 0 1.62.36.73.37 1.26 1.07.53.7.81 1.72.29 1.03.29 2.35 0 1.21-.32 2.24-.33 1.02-.93 1.78-.61.76-1.46 1.18-.86.43-1.92.43-.9 0-1.54-.28t-1.15-.77v4.41h-2.59v-14.29h1.59q.5 0 .66.47Zm9.71-5.3h2.59v15.6h-2.59v-15.6Zm10.88 12.82v-1.82q-1.12.05-1.89.2-.77.14-1.23.36-.46.22-.66.51-.2.3-.2.64 0 .68.4.98.41.29 1.06.29.8 0 1.38-.29.58-.28 1.14-.87Zm-5.48-5.66-.46-.83q1.85-1.7 4.47-1.7.94 0 1.69.31.74.31 1.26.86.51.55.78 1.32.27.76.27 1.68v6.8h-1.18q-.36 0-.56-.11-.2-.11-.32-.45l-.23-.77q-.41.36-.8.64-.39.28-.81.47-.42.19-.89.29-.48.1-1.06.1-.68 0-1.26-.19-.58-.18-1-.55-.42-.36-.65-.91-.23-.55-.23-1.27 0-.41.14-.81.13-.41.44-.78.31-.36.81-.69.49-.33 1.21-.57.72-.24 1.67-.39.96-.15 2.19-.18v-.63q0-1.09-.46-1.61-.47-.52-1.34-.52-.63 0-1.04.15-.42.15-.73.33-.32.19-.57.33-.26.15-.58.15-.27 0-.46-.14t-.3-.33Zm18.85-1-.69.95q-.11.14-.22.23-.11.08-.32.08-.2 0-.39-.12t-.45-.27q-.27-.16-.63-.28-.36-.12-.9-.12-.68 0-1.19.25-.52.25-.86.71-.34.46-.51 1.12-.17.65-.17 1.48 0 .86.19 1.54.18.67.53 1.12.34.46.84.7.49.23 1.11.23.62 0 1-.15.39-.15.65-.33.26-.19.46-.34.19-.15.43-.15.32 0 .47.24l.75.94q-.43.51-.93.85-.51.34-1.05.54-.54.21-1.11.29-.57.09-1.14.09-1 0-1.88-.38-.88-.37-1.54-1.08-.67-.72-1.05-1.75t-.38-2.36q0-1.18.34-2.2.34-1.01 1-1.75.66-.74 1.64-1.16.98-.42 2.25-.42 1.2 0 2.11.39.91.39 1.64 1.11Zm3.76 2.81h4.9q0-.5-.14-.95-.15-.44-.43-.78-.28-.33-.72-.53-.43-.19-1.01-.19-1.13 0-1.77.64-.65.64-.83 1.81Zm6.62 1.57h-6.67q.07.83.3 1.43.23.61.61 1 .37.39.89.59.52.19 1.15.19.63 0 1.09-.15.46-.14.8-.32t.6-.33q.25-.14.49-.14.33 0 .49.24l.74.94q-.43.51-.96.85-.54.34-1.12.54-.58.21-1.19.29-.6.09-1.17.09-1.12 0-2.09-.38-.96-.37-1.68-1.1-.71-.73-1.12-1.8-.41-1.08-.41-2.5 0-1.1.36-2.07.35-.97 1.02-1.69t1.63-1.14q.96-.42 2.17-.42 1.01 0 1.88.32.86.33 1.48.95.62.63.97 1.54t.35 2.07q0 .59-.13.79-.12.21-.48.21Zm5.14-10.54v5.98q.63-.59 1.39-.95.76-.37 1.78-.37.88 0 1.56.3t1.14.84q.46.54.69 1.29.24.75.24 1.65v6.86h-2.6v-6.86q0-.98-.45-1.52-.45-.55-1.37-.55-.67 0-1.26.31-.59.3-1.12.83v7.79h-2.59v-15.6h2.59Zm14.02 4.66q1.2 0 2.18.39.98.39 1.68 1.1.7.71 1.08 1.74.38 1.03.38 2.3 0 1.28-.38 2.31t-1.08 1.76q-.7.72-1.68 1.11-.98.39-2.18.39-1.21 0-2.19-.39-.99-.39-1.69-1.11-.7-.73-1.08-1.76-.38-1.03-.38-2.31 0-1.27.38-2.3.38-1.03 1.08-1.74.7-.71 1.69-1.1.98-.39 2.19-.39Zm0 9.1q1.35 0 1.99-.9.65-.9.65-2.65 0-1.74-.65-2.65-.64-.92-1.99-.92-1.36 0-2.02.92-.66.92-.66 2.65 0 1.74.66 2.64.66.91 2.02.91Zm7.33-13.76h2.59v15.6h-2.59v-15.6Zm11.95 12.41v-4.83q-.44-.54-.96-.76-.52-.22-1.12-.22-.59 0-1.06.22-.47.22-.81.67-.33.44-.51 1.13t-.18 1.62q0 .95.15 1.61.15.65.44 1.07.28.41.69.6.41.18.91.18.81 0 1.38-.34.57-.33 1.07-.95Zm0-12.41h2.59v15.6h-1.58q-.52 0-.65-.47l-.22-1.04q-.65.74-1.5 1.21-.84.46-1.97.46-.88 0-1.62-.37-.73-.37-1.26-1.07-.53-.69-.82-1.72-.29-1.03-.29-2.36 0-1.19.33-2.22.32-1.03.93-1.79.61-.75 1.46-1.18.85-.42 1.91-.42.91 0 1.55.28t1.14.77v-5.68Zm7.2 8.97h4.9q0-.5-.15-.95-.14-.44-.42-.78-.28-.33-.72-.53-.44-.19-1.01-.19-1.13 0-1.77.64-.65.64-.83 1.81Zm6.62 1.57h-6.67q.06.83.29 1.43.24.61.61 1 .38.39.9.59.52.19 1.15.19.63 0 1.09-.15.45-.14.8-.32.34-.18.59-.33.26-.14.5-.14.33 0 .49.24l.74.94q-.43.51-.96.85-.54.34-1.12.54-.59.21-1.19.29-.6.09-1.17.09-1.12 0-2.09-.38-.97-.37-1.68-1.1-.71-.73-1.12-1.8-.41-1.08-.41-2.5 0-1.1.35-2.07.36-.97 1.03-1.69t1.63-1.14q.96-.42 2.16-.42 1.02 0 1.88.32.86.33 1.48.95.62.63.98 1.54.35.91.35 2.07 0 .59-.13.79-.12.21-.48.21Zm4.84-5.06.16 1.22q.5-.97 1.19-1.52.7-.55 1.64-.55.75 0 1.2.32l-.17 1.95q-.05.18-.15.26-.1.08-.27.08-.16 0-.47-.05-.31-.05-.6-.05-.43 0-.77.12-.33.13-.6.37-.27.23-.47.57-.21.33-.39.76v6.64h-2.59v-10.77h1.52q.4 0 .56.14.16.14.21.51Zm14 10.12h-2.6v-8.82l-.93-.15q-.31-.06-.49-.21t-.18-.44v-1.06h1.6v-.8q0-.92.28-1.66.28-.73.8-1.25.52-.51 1.26-.78.75-.28 1.68-.28.75 0 1.39.2l-.05 1.31q-.01.14-.09.23-.07.09-.19.14-.12.05-.28.06-.16.02-.34.02-.46 0-.82.1-.36.1-.61.34-.26.25-.39.65-.13.41-.13 1.01v.71h2.8v1.85h-2.71v8.83Zm8.94-10.94q1.2 0 2.18.39.98.39 1.68 1.1.7.71 1.08 1.74.37 1.03.37 2.3 0 1.28-.37 2.31-.38 1.03-1.08 1.76-.7.72-1.68 1.11-.98.39-2.18.39-1.21 0-2.19-.39-.99-.39-1.69-1.11-.7-.73-1.08-1.76-.38-1.03-.38-2.31 0-1.27.38-2.3.38-1.03 1.08-1.74.7-.71 1.69-1.1.98-.39 2.19-.39Zm0 9.1q1.35 0 1.99-.9.65-.9.65-2.65 0-1.74-.65-2.65-.64-.92-1.99-.92-1.36 0-2.02.92-.66.92-.66 2.65 0 1.74.66 2.64.66.91 2.02.91Zm9.59-8.28.16 1.22q.5-.97 1.19-1.52.7-.55 1.64-.55.75 0 1.2.32l-.17 1.95q-.05.18-.15.26-.1.08-.27.08-.16 0-.47-.05-.31-.05-.6-.05-.43 0-.77.12-.33.13-.6.37-.27.23-.47.57-.21.33-.39.76v6.64h-2.59v-10.77h1.52q.4 0 .56.14.16.14.21.51Zm16.34 7.34v-1.82q-1.13.05-1.89.2-.77.14-1.23.36-.46.22-.66.51-.2.3-.2.64 0 .68.4.98.4.29 1.06.29.79 0 1.38-.29.58-.28 1.14-.87Zm-5.49-5.66-.46-.83q1.86-1.7 4.48-1.7.94 0 1.69.31.74.31 1.26.86.51.55.78 1.32.27.76.27 1.68v6.8h-1.18q-.37 0-.57-.11-.2-.11-.31-.45l-.23-.77q-.41.36-.8.64-.39.28-.81.47-.42.19-.9.29-.47.1-1.05.1-.68 0-1.26-.19-.58-.18-1-.55-.42-.36-.65-.91-.23-.55-.23-1.27 0-.41.13-.81.14-.41.45-.78.31-.36.8-.69.5-.33 1.22-.57.72-.24 1.67-.39.96-.15 2.19-.18v-.63q0-1.09-.47-1.61-.46-.52-1.33-.52-.63 0-1.04.15-.42.15-.73.33-.32.19-.58.33-.25.15-.57.15-.27 0-.46-.14t-.31-.33Zm12.7-1.86.18.85q.32-.33.69-.6.36-.28.76-.48.41-.19.87-.3.46-.11 1.01-.11.88 0 1.56.3t1.14.84q.46.54.69 1.29.24.75.24 1.65v6.86h-2.59v-6.86q0-.98-.46-1.52-.45-.55-1.37-.55-.67 0-1.26.31-.59.3-1.11.83v7.79h-2.6v-10.77h1.59q.5 0 .66.47Zm14.78-.47h2.61v10.77h-2.61v-10.77Zm2.96-3.14q0 .33-.13.63-.14.29-.36.51-.23.22-.53.35-.31.13-.66.13-.33 0-.63-.13t-.52-.35q-.22-.22-.35-.51-.13-.3-.13-.63 0-.35.13-.65.13-.31.35-.53.22-.22.52-.35.3-.13.63-.13.35 0 .66.13.3.13.53.35.22.22.36.53.13.3.13.65Zm4.89 13.91h-2.6v-10.77h1.59q.5 0 .66.47l.17.8q.28-.32.59-.58.31-.26.66-.45.35-.19.76-.3.4-.11.89-.11 1.01 0 1.67.55.66.55.98 1.46.25-.53.63-.91.38-.39.83-.63.45-.24.96-.36.51-.11 1.03-.11.89 0 1.58.27.7.27 1.17.8.47.52.72 1.28.24.76.24 1.73v6.86h-2.59v-6.86q0-1.03-.45-1.55t-1.32-.52q-.4 0-.74.14-.35.14-.6.4-.26.25-.41.64-.14.39-.14.89v6.86h-2.61v-6.86q0-1.08-.43-1.57-.44-.5-1.28-.5-.57 0-1.06.28-.48.28-.9.76v7.89Zm20.68-2.78v-1.82q-1.12.05-1.89.2-.76.14-1.23.36-.46.22-.66.51-.2.3-.2.64 0 .68.41.98.4.29 1.05.29.8 0 1.38-.29.59-.28 1.14-.87Zm-5.48-5.66-.46-.83q1.86-1.7 4.47-1.7.95 0 1.69.31.75.31 1.26.86.52.55.78 1.32.27.76.27 1.68v6.8h-1.17q-.37 0-.57-.11-.2-.11-.32-.45l-.23-.77q-.41.36-.79.64-.39.28-.81.47-.42.19-.9.29-.48.1-1.06.1-.68 0-1.26-.19-.57-.18-.99-.55-.42-.36-.65-.91-.24-.55-.24-1.27 0-.41.14-.81.14-.41.45-.78.31-.36.8-.69.49-.33 1.21-.57.72-.24 1.68-.39.95-.15 2.18-.18v-.63q0-1.09-.46-1.61t-1.33-.52q-.63 0-1.05.15-.41.15-.73.33-.31.19-.57.33-.26.15-.57.15-.28 0-.46-.14-.19-.14-.31-.33Zm14.39 2.79q.48 0 .84-.13.35-.13.59-.36.24-.23.36-.56.12-.32.12-.71 0-.8-.48-1.27t-1.43-.47q-.96 0-1.44.47t-.48 1.27q0 .37.13.7.12.33.35.56.24.24.6.37t.84.13Zm2.93 6.13q0-.31-.19-.51t-.52-.31q-.32-.11-.76-.16-.44-.06-.92-.08-.49-.03-1.01-.05-.52-.02-1.01-.08-.44.24-.7.56-.27.33-.27.76 0 .28.14.53t.45.42q.31.18.81.28.49.1 1.2.1.73 0 1.25-.11.53-.11.87-.3.34-.2.5-.46.16-.27.16-.59Zm-.52-10.89h3.1v.97q0 .46-.56.57l-.96.18q.22.55.22 1.21 0 .8-.32 1.45-.32.64-.89 1.09-.57.46-1.34.7-.77.25-1.66.25-.32 0-.61-.03-.3-.03-.58-.09-.5.31-.5.69 0 .32.29.47.3.16.8.22.49.06 1.12.08.63.01 1.29.07.66.05 1.29.18t1.13.42q.49.28.79.77.3.49.3 1.25 0 .72-.35 1.39-.35.67-1.02 1.2-.67.52-1.64.84-.97.32-2.21.32-1.22 0-2.12-.24-.9-.23-1.5-.63-.6-.39-.89-.9-.3-.52-.3-1.07 0-.76.46-1.27t1.25-.81q-.43-.22-.68-.59-.25-.37-.25-.97 0-.24.09-.5.09-.25.26-.51.17-.25.44-.47.26-.23.62-.41-.82-.44-1.29-1.17-.47-.74-.47-1.73 0-.79.32-1.44.32-.65.89-1.1.58-.46 1.36-.7.78-.24 1.71-.24.69 0 1.3.14.61.14 1.11.41Zm6.78 3.78h4.9q0-.5-.15-.95-.14-.44-.42-.78-.28-.33-.72-.53-.44-.19-1.01-.19-1.13 0-1.77.64-.65.64-.83 1.81Zm6.62 1.57h-6.67q.06.83.3 1.43.23.61.6 1 .38.39.9.59.52.19 1.15.19.63 0 1.09-.15.46-.14.8-.32t.59-.33q.26-.14.5-.14.33 0 .49.24l.74.94q-.43.51-.96.85-.54.34-1.12.54-.58.21-1.19.29-.6.09-1.17.09-1.12 0-2.09-.38-.96-.37-1.68-1.1-.71-.73-1.12-1.8-.41-1.08-.41-2.5 0-1.1.36-2.07.35-.97 1.02-1.69t1.63-1.14q.96-.42 2.16-.42 1.02 0 1.88.32.87.33 1.48.95.62.63.98 1.54.35.91.35 2.07 0 .59-.13.79-.12.21-.48.21Z"/></svg>